<?xml version="1.0" standalone="no"?>
<!DOCTYPE svg PUBLIC "-//W3C//DTD SVG 20010904//EN"
 "http://www.w3.org/TR/2001/REC-SVG-20010904/DTD/svg10.dtd">
<svg version="1.0" xmlns="http://www.w3.org/2000/svg"
 width="300.000000pt" height="300.000000pt" viewBox="0 0 300.000000 300.000000"
 preserveAspectRatio="xMidYMid meet">
<metadata>
Created by potrace 1.11, written by Peter Selinger 2001-2013
</metadata>
<g transform="translate(0.000000,300.000000) scale(0.100000,-0.100000)"
fill="#000000" stroke="none">
<path d="M1307 2473 c-3 -5 -8 -37 -12 -73 -4 -36 -9 -74 -11 -85 -3 -11 -5
-50 -6 -86 -1 -65 -2 -67 -35 -83 -30 -14 -32 -19 -28 -49 5 -31 3 -36 -25
-47 -54 -23 -155 -133 -193 -212 -19 -40 -37 -82 -39 -93 -2 -12 -22 -29 -48
-43 -25 -13 -55 -38 -68 -56 -43 -63 -24 -146 39 -169 16 -6 29 -15 29 -20 0
-4 5 -5 11 -1 8 4 8 1 1 -12 -5 -11 -8 -30 -6 -44 2 -14 6 -54 9 -90 8 -100
53 -266 97 -360 93 -195 189 -282 330 -299 l63 -7 -45 -12 c-25 -7 -76 -21
-115 -33 -38 -11 -75 -21 -82 -22 -7 -2 -16 -6 -19 -10 -4 -4 -14 -7 -22 -7
-7 0 -27 -9 -43 -21 -16 -11 -29 -18 -29 -14 0 8 -94 -47 -98 -57 -2 -4 -10
-8 -17 -8 -23 0 -205 -187 -205 -211 0 -4 -24 -10 -54 -13 -30 -4 -60 -14 -67
-22 -6 -8 -17 -14 -24 -14 -13 0 -65 -48 -99 -90 -11 -13 -25 -43 -32 -67
l-13 -43 1164 0 1165 0 0 35 c0 86 -98 195 -209 233 -19 7 -61 40 -95 74 -72
74 -122 118 -134 118 -5 0 -17 9 -27 20 -9 10 -40 31 -68 46 -106 55 -126 65
-146 70 -9 2 -50 13 -91 24 -73 20 -105 24 -245 36 -38 4 -71 7 -73 9 -9 8
-11 55 -2 55 16 0 133 122 154 160 43 78 47 88 66 180 12 56 19 200 10 200 -3
0 -6 44 -7 98 -7 286 -28 407 -96 550 -54 114 -169 206 -259 207 -20 0 -36 2
-35 5 5 19 -27 49 -54 52 -29 3 -33 8 -56 73 -43 122 -85 225 -93 230 -5 3
-11 2 -13 -2z m143 -1827 c0 -2 -7 -6 -15 -10 -8 -3 -15 -1 -15 4 0 6 7 10 15
10 8 0 15 -2 15 -4z"/>
</g>
</svg>
